<?xml version="1.0" standalone="no"?>
<!DOCTYPE svg PUBLIC "-//W3C//DTD SVG 20010904//EN"
 "http://www.w3.org/TR/2001/REC-SVG-20010904/DTD/svg10.dtd">
<svg version="1.0" xmlns="http://www.w3.org/2000/svg"
 width="260.000000pt" height="260.000000pt" viewBox="0 0 260.000000 260.000000"
 preserveAspectRatio="xMidYMid meet">
<metadata>
Created by potrace 1.11, written by Peter Selinger 2001-2013
</metadata>
<g transform="translate(0.000000,260.000000) scale(0.100000,-0.100000)"
fill="#000000" stroke="none">
<path d="M0 1300 l0 -1300 1300 0 1300 0 0 1300 0 1300 -1300 0 -1300 0 0
-1300z m1736 623 c-4 -10 -86 -215 -184 -455 l-177 -438 -162 0 -163 0 9 23
c19 48 321 795 340 840 l20 47 162 0 c149 0 161 -1 155 -17z m374 -19 c189
-63 323 -205 361 -385 20 -93 6 -260 -31 -369 -82 -246 -231 -382 -505 -463
-68 -20 -95 -21 -944 -24 -837 -4 -873 -3 -867 14 4 10 32 82 62 160 l56 142
801 3 802 3 65 31 c118 57 184 149 200 281 14 113 -9 201 -67 254 -57 54 -88
63 -231 67 -94 3 -132 8 -129 16 42 100 111 267 118 285 10 24 11 24 117 18
79 -4 130 -13 192 -33z m-842 -163 c-1 -5 -66 -167 -143 -360 l-140 -351 -163
0 c-90 0 -162 4 -160 9 2 5 66 167 143 360 l140 351 163 0 c94 0 162 -4 160
-9z"/>
</g>
</svg>
