<?xml version="1.0" encoding="utf-8"?>
<!-- Generator: Adobe Illustrator 15.1.0, SVG Export Plug-In . SVG Version: 6.00 Build 0)  -->
<!DOCTYPE svg PUBLIC "-//W3C//DTD SVG 1.1//EN" "http://www.w3.org/Graphics/SVG/1.1/DTD/svg11.dtd">
<svg version="1.1" id="livetype" xmlns="http://www.w3.org/2000/svg" xmlns:xlink="http://www.w3.org/1999/xlink" x="0px" y="0px"
	 width="747.9px" height="250px" viewBox="-314.118 -105 747.9 250" enable-background="new -314.118 -105 747.9 250"
	 xml:space="preserve">
<title>Download_on_the_App_Store_Badge_US-UK_RGB_blk_4SVG_092917</title>
<g>
	<g>
		<g>
			<path fill="#A6A6A6" d="M374.225-106h-628.751c-2.292,0-4.557,0-6.842,0.012c-1.914,0.012-3.812,0.049-5.743,0.08
				c-4.196,0.049-8.383,0.418-12.524,1.104c-4.135,0.702-8.139,2.021-11.88,3.918c-3.735,1.914-7.15,4.397-10.117,7.367
				c-2.982,2.96-5.469,6.381-7.364,10.132c-1.898,3.745-3.217,7.755-3.906,11.896c-0.696,4.135-1.071,8.319-1.12,12.512
				c-0.058,1.917-0.064,3.839-0.095,5.756V91.241c0.03,1.94,0.037,3.821,0.095,5.762c0.049,4.193,0.424,8.374,1.12,12.513
				c0.687,4.144,2.005,8.154,3.906,11.901c1.895,3.735,4.379,7.147,7.364,10.089c2.957,2.984,6.372,5.469,10.117,7.367
				c3.741,1.904,7.745,3.234,11.88,3.943c4.141,0.684,8.328,1.049,12.524,1.104c1.932,0.042,3.83,0.067,5.743,0.067
				c2.286,0.012,4.55,0.012,6.842,0.012h628.751c2.246,0,4.528,0,6.774-0.012c1.904,0,3.857-0.025,5.762-0.067
				c4.187-0.056,8.368-0.421,12.5-1.104c4.15-0.721,8.167-2.045,11.927-3.943c3.741-1.898,7.152-4.383,10.107-7.367
				c2.979-2.954,5.469-6.359,7.385-10.089c1.886-3.747,3.192-7.764,3.869-11.901c0.696-4.139,1.087-8.319,1.16-12.513
				c0.024-1.94,0.024-3.821,0.024-5.762c0.049-2.271,0.049-4.528,0.049-6.836V-46.399c0-2.289,0-4.559-0.049-6.823
				c0-1.917,0-3.839-0.024-5.756c-0.073-4.193-0.464-8.377-1.16-12.512c-0.684-4.138-1.983-8.148-3.869-11.896
				c-3.857-7.52-9.973-13.638-17.492-17.499c-3.76-1.892-7.776-3.213-11.927-3.918c-4.132-0.689-8.313-1.059-12.5-1.104
				c-1.904-0.031-3.857-0.067-5.762-0.08C378.753-106,376.471-106,374.225-106L374.225-106z"/>
			<path d="M-261.338,138.531c-1.904,0-3.763-0.024-5.652-0.067c-3.913-0.055-7.819-0.391-11.682-1.019
				c-3.601-0.623-7.092-1.776-10.354-3.425c-3.232-1.636-6.18-3.778-8.731-6.354c-2.588-2.539-4.742-5.493-6.378-8.728
				c-1.654-3.26-2.799-6.751-3.394-10.358c-0.644-3.876-0.992-7.794-1.041-11.719c-0.04-1.318-0.091-5.706-0.091-5.706V-53.223
				c0,0,0.055-4.321,0.091-5.591c0.049-3.922,0.394-7.831,1.035-11.701c0.595-3.616,1.743-7.12,3.397-10.388
				c1.629-3.235,3.771-6.186,6.344-8.737c2.57-2.576,5.527-4.733,8.765-6.39c3.256-1.645,6.738-2.79,10.333-3.4
				c3.875-0.635,7.794-0.977,11.722-1.025l5.64-0.076h642.304l5.707,0.079c3.894,0.046,7.775,0.385,11.614,1.017
				c3.632,0.616,7.147,1.77,10.443,3.424c6.481,3.342,11.768,8.63,15.094,15.125c1.63,3.247,2.753,6.723,3.345,10.306
				c0.653,3.9,1.014,7.843,1.087,11.795c0.019,1.77,0.019,3.671,0.019,5.563c0.049,2.344,0.049,4.574,0.049,6.823V84.405
				c0,2.271,0,4.486-0.049,6.72c0,2.033,0,3.895-0.025,5.811c-0.072,3.882-0.427,7.758-1.067,11.585
				c-0.58,3.632-1.722,7.153-3.376,10.437c-1.647,3.205-3.79,6.122-6.348,8.661c-2.551,2.588-5.505,4.742-8.746,6.391
				c-3.283,1.666-6.793,2.819-10.425,3.437c-3.863,0.635-7.77,0.97-11.682,1.019c-1.831,0.043-3.748,0.067-5.609,0.067l-6.774,0.012
				L-261.338,138.531z"/>
		</g>
		<g id="_Group_">
			<g id="_Group_2">
				<g id="_Group_3">
					<path id="_Path_" fill="#FFFFFF" d="M-159.312,20.88c0.134-10.605,5.694-20.398,14.728-25.952
						c-5.725-8.176-14.969-13.171-24.945-13.482c-10.495-1.105-20.669,6.277-26.019,6.277c-5.451,0-13.685-6.171-22.553-5.988
						c-11.667,0.378-22.278,6.851-27.954,17.05c-12.088,20.926-3.073,51.685,8.505,68.604c5.795,8.276,12.564,17.529,21.424,17.206
						c8.67-0.36,11.908-5.53,22.372-5.53c10.367,0,13.403,5.53,22.442,5.316c9.302-0.146,15.165-8.312,20.755-16.675
						c4.16-5.908,7.364-12.427,9.488-19.336C-152.115,43.701-159.3,32.879-159.312,20.88z"/>
					<path id="_Path_2" fill="#FFFFFF" d="M-176.386-29.682c5.072-6.088,7.572-13.916,6.967-21.817
						c-7.749,0.815-14.908,4.517-20.047,10.373c-5.078,5.777-7.648,13.336-7.15,21.009
						C-188.761-20.035-181.306-23.563-176.386-29.682z"/>
				</g>
			</g>
			<g>
				<path fill="#FFFFFF" d="M-49.729,63.623h-29.583l-7.104,20.978h-12.531l28.021-77.612h13.019l28.021,77.612h-12.744
					L-49.729,63.623z M-76.249,53.942h23.45l-11.561-34.045h-0.323L-76.249,53.942z"/>
				<path fill="#FFFFFF" d="M30.63,56.311c0,17.584-9.412,28.882-23.614,28.882c-7.343,0.385-14.258-3.46-17.805-9.899h-0.269
					v28.027h-11.614V28.015h11.242v9.412h0.214c3.705-6.403,10.629-10.242,18.018-10.004C21.163,27.423,30.63,38.775,30.63,56.311z
					 M18.691,56.311c0-11.456-5.921-18.988-14.954-18.988c-8.874,0-14.844,7.691-14.844,18.988c0,11.401,5.97,19.037,14.844,19.037
					C12.771,75.348,18.691,67.871,18.691,56.311z"/>
				<path fill="#FFFFFF" d="M92.913,56.311c0,17.584-9.411,28.882-23.62,28.882c-7.34,0.385-14.255-3.46-17.802-9.899h-0.269v28.027
					H39.608V28.015h11.242v9.412h0.214c3.705-6.403,10.626-10.242,18.021-10.004C83.44,27.423,92.913,38.775,92.913,56.311z
					 M80.975,56.311c0-11.456-5.92-18.988-14.953-18.988c-8.878,0-14.848,7.691-14.848,18.988c0,11.401,5.97,19.037,14.848,19.037
					C75.055,75.348,80.975,67.871,80.975,56.311z"/>
				<path fill="#FFFFFF" d="M134.075,62.976c0.854,7.696,8.337,12.751,18.555,12.751c9.79,0,16.833-5.055,16.833-11.994
					c0-6.023-4.248-9.631-14.307-12.104l-10.059-2.423c-14.258-3.442-20.873-10.107-20.873-20.923
					c0-13.391,11.67-22.589,28.246-22.589c16.395,0,27.637,9.198,28.016,22.589h-11.719c-0.708-7.745-7.104-12.42-16.467-12.42
					c-9.352,0-15.76,4.73-15.76,11.615c0,5.487,4.09,8.716,14.1,11.188l8.545,2.1c15.93,3.766,22.546,10.162,22.546,21.515
					c0,14.521-11.572,23.614-29.968,23.614c-17.213,0-28.834-8.881-29.578-22.919H134.075z"/>
				<path fill="#FFFFFF" d="M206.793,14.624v13.391h10.766v9.198h-10.766v31.195c0,4.846,2.16,7.104,6.885,7.104
					c1.281-0.019,2.557-0.116,3.82-0.269v9.143c-2.124,0.396-4.285,0.58-6.445,0.537c-11.463,0-15.93-4.303-15.93-15.277V37.213
					h-8.229v-9.198h8.229V14.624H206.793z"/>
				<path fill="#FFFFFF" d="M223.785,56.311c0-17.804,10.485-28.991,26.843-28.991c16.406,0,26.843,11.188,26.843,28.991
					c0,17.854-10.388,28.992-26.843,28.992S223.785,74.164,223.785,56.311z M265.631,56.311c0-12.213-5.592-19.421-15.003-19.421
					s-15.003,7.263-15.003,19.421c0,12.262,5.592,19.416,15.003,19.416S265.631,68.572,265.631,56.311L265.631,56.311z"/>
				<path fill="#FFFFFF" d="M287.041,28.015h11.084v9.632h0.27c1.537-6.201,7.227-10.468,13.61-10.224
					c1.337-0.006,2.673,0.141,3.979,0.434v10.864c-1.697-0.52-3.455-0.751-5.225-0.702c-6.457-0.263-11.902,4.761-12.164,11.218
					c-0.024,0.599-0.006,1.203,0.066,1.801v33.563h-11.621V28.015z"/>
				<path fill="#FFFFFF" d="M369.537,67.98c-1.562,10.272-11.572,17.322-24.365,17.322c-16.468,0-26.686-11.029-26.686-28.724
					c0-17.749,10.279-29.26,26.197-29.26c15.648,0,25.5,10.754,25.5,27.911v3.979h-39.966v0.702
					c-0.72,8.111,5.273,15.265,13.379,15.979c0.61,0.055,1.227,0.067,1.843,0.049c5.634,0.531,10.95-2.71,13.062-7.959H369.537z
					 M330.267,51.092h28.296c0.415-7.507-5.328-13.928-12.83-14.343c-0.354-0.019-0.701-0.024-1.049-0.019
					c-7.91-0.049-14.368,6.33-14.417,14.24C330.267,51.007,330.267,51.056,330.267,51.092z"/>
			</g>
		</g>
	</g>
	<g id="_Group_4">
		<g>
			<path fill="#FFFFFF" d="M-77.705-51.432c9.088-0.653,16.983,6.186,17.636,15.274c0.079,1.086,0.049,2.176-0.089,3.256
				c0,11.914-6.439,18.762-17.547,18.762h-13.47v-37.292H-77.705z M-85.383-19.413h7.031c6.464,0.388,12.018-4.541,12.402-11.004
				c0.049-0.803,0.016-1.611-0.104-2.408c0.882-6.433-3.616-12.362-10.05-13.244c-0.744-0.104-1.498-0.135-2.249-0.092h-7.031
				V-19.413z"/>
			<path fill="#FFFFFF" d="M-53.614-28.223c-0.702-7.331,4.673-13.84,12.003-14.542c7.33-0.702,13.84,4.672,14.542,12.003
				c0.083,0.845,0.083,1.693,0,2.539c0.714,7.33-4.651,13.852-11.978,14.562c-7.33,0.714-13.852-4.647-14.566-11.978
				C-53.696-26.499-53.696-27.362-53.614-28.223z M-32.783-28.223c0-6.101-2.741-9.668-7.55-9.668c-4.828,0-7.544,3.567-7.544,9.668
				c0,6.149,2.716,9.689,7.544,9.689C-35.523-18.534-32.783-22.098-32.783-28.223L-32.783-28.223z"/>
			<path fill="#FFFFFF" d="M8.215-14.139H2.453l-5.817-20.728h-0.439l-5.792,20.728h-5.707l-7.757-28.143h5.633l5.042,21.475h0.415
				l5.786-21.475h5.328l5.786,21.475H5.37l5.018-21.475h5.554L8.215-14.139z"/>
			<path fill="#FFFFFF" d="M22.466-42.282h5.347v4.471h0.415c1.444-3.293,4.816-5.304,8.398-5.014
				c5.042-0.378,9.436,3.4,9.814,8.441c0.052,0.677,0.028,1.355-0.073,2.026v18.219h-5.554v-16.824c0-4.523-1.965-6.772-6.073-6.772
				c-3.562-0.165-6.582,2.588-6.75,6.149c-0.016,0.327-0.003,0.656,0.03,0.982v16.464h-5.554V-42.282z"/>
			<path fill="#FFFFFF" d="M55.218-53.269h5.554v39.129h-5.554V-53.269z"/>
			<path fill="#FFFFFF" d="M68.493-28.223c-0.702-7.331,4.675-13.843,12.005-14.542c7.331-0.702,13.844,4.672,14.539,12.003
				c0.086,0.845,0.086,1.696,0,2.539c0.721,7.33-4.65,13.852-11.975,14.562c-7.337,0.714-13.855-4.65-14.569-11.981
				C68.414-26.499,68.414-27.365,68.493-28.223z M89.324-28.223c0-6.101-2.74-9.668-7.55-9.668c-4.828,0-7.544,3.567-7.544,9.668
				c0,6.149,2.716,9.689,7.544,9.689C86.584-18.534,89.324-22.098,89.324-28.223z"/>
			<path fill="#FFFFFF" d="M100.885-22.098c0-5.066,3.771-7.986,10.473-8.401l7.617-0.439v-2.429c0-2.973-1.965-4.651-5.762-4.651
				c-3.1,0-5.248,1.138-5.859,3.128h-5.383c0.574-4.834,5.115-7.935,11.499-7.935c7.056,0,11.035,3.513,11.035,9.458v19.229h-5.347
				v-3.955h-0.439c-1.812,2.89-5.041,4.578-8.447,4.419c-4.676,0.485-8.85-2.905-9.338-7.578
				C100.902-21.533,100.885-21.814,100.885-22.098z M118.975-24.503v-2.353l-6.872,0.439c-3.87,0.259-5.628,1.578-5.628,4.059
				c0,2.533,2.197,4.007,5.213,4.007c3.65,0.369,6.903-2.286,7.275-5.933C118.963-24.356,118.975-24.43,118.975-24.503z"/>
			<path fill="#FFFFFF" d="M131.805-28.223c0-8.893,4.578-14.526,11.682-14.526c3.596-0.165,6.959,1.758,8.631,4.938h0.415v-15.457
				h5.554v39.129h-5.322v-4.446h-0.439c-1.8,3.152-5.206,5.044-8.838,4.91C136.334-13.675,131.805-19.309,131.805-28.223z
				 M137.542-28.223c0,5.969,2.819,9.561,7.52,9.561c4.688,0,7.581-3.644,7.581-9.537c0-5.866-2.93-9.562-7.581-9.562
				C140.387-37.76,137.542-34.144,137.542-28.223L137.542-28.223z"/>
			<path fill="#FFFFFF" d="M181.072-28.223c-0.708-7.331,4.669-13.84,12-14.542c7.33-0.702,13.842,4.672,14.538,12.003
				c0.085,0.845,0.085,1.693,0,2.539c0.72,7.33-4.651,13.852-11.976,14.562c-7.33,0.714-13.854-4.647-14.562-11.978
				C180.986-26.499,180.986-27.362,181.072-28.223z M201.897-28.223c0-6.101-2.734-9.668-7.544-9.668
				c-4.834,0-7.544,3.567-7.544,9.668c0,6.149,2.71,9.689,7.544,9.689C199.163-18.534,201.897-22.098,201.897-28.223z"/>
			<path fill="#FFFFFF" d="M215.068-42.282h5.348v4.471h0.414c1.441-3.293,4.811-5.304,8.398-5.014
				c5.042-0.378,9.437,3.4,9.814,8.441c0.049,0.677,0.025,1.355-0.072,2.026v18.219h-5.555v-16.824c0-4.523-1.965-6.772-6.079-6.772
				c-3.559-0.165-6.579,2.588-6.751,6.149c-0.012,0.327,0,0.656,0.037,0.982v16.464h-5.555V-42.282z"/>
			<path fill="#FFFFFF" d="M270.354-49.289v7.135h6.091v4.679h-6.091v14.471c0,2.948,1.208,4.239,3.979,4.239
				c0.708-0.003,1.416-0.046,2.111-0.128v4.626c-0.994,0.18-2.002,0.274-3.015,0.284c-6.177,0-8.643-2.173-8.643-7.599v-15.894
				h-4.468v-4.679h4.468v-7.135H270.354z"/>
			<path fill="#FFFFFF" d="M284.039-53.269h5.505v15.509h0.439c1.514-3.32,4.944-5.337,8.581-5.042
				c5.109-0.278,9.479,3.641,9.76,8.752c0.031,0.583,0.006,1.163-0.066,1.74v18.17h-5.566v-16.8c0-4.495-2.088-6.772-6.019-6.772
				c-3.613-0.296-6.787,2.396-7.086,6.015c-0.03,0.373-0.03,0.748,0.006,1.12v16.437h-5.554V-53.269z"/>
			<path fill="#FFFFFF" d="M340.643-21.738c-1.562,5.307-6.701,8.737-12.195,8.142c-7.062,0.186-12.933-5.383-13.122-12.442
				c-0.013-0.695,0.024-1.395,0.122-2.084c-0.952-7.104,4.034-13.639,11.139-14.591c0.604-0.079,1.221-0.119,1.838-0.113
				c7.824,0,12.549,5.35,12.549,14.188v1.938H321.1v0.312c-0.342,4.092,2.697,7.693,6.787,8.035c0.237,0.021,0.476,0.03,0.707,0.027
				c2.723,0.327,5.365-1.022,6.702-3.412H340.643z M321.1-30.808h14.221c0.274-3.738-2.533-6.998-6.274-7.272
				c-0.22-0.019-0.439-0.024-0.659-0.019c-3.967-0.049-7.238,3.131-7.287,7.108C321.1-30.93,321.1-30.869,321.1-30.808L321.1-30.808
				z"/>
		</g>
	</g>
</g>
</svg>
