<?xml version="1.0" encoding="utf-8"?>
<!-- Generator: Adobe Illustrator 15.1.0, SVG Export Plug-In . SVG Version: 6.00 Build 0)  -->
<!DOCTYPE svg PUBLIC "-//W3C//DTD SVG 1.1//EN" "http://www.w3.org/Graphics/SVG/1.1/DTD/svg11.dtd">
<svg version="1.1" id="livetype" xmlns="http://www.w3.org/2000/svg" xmlns:xlink="http://www.w3.org/1999/xlink" x="0px" y="0px"
	 width="747.9px" height="250px" viewBox="-314.118 -105 747.9 250" enable-background="new -314.118 -105 747.9 250"
	 xml:space="preserve">
<g>
	<title>Download_on_the_App_Store_Badge_ES_RGB_blk_100217</title>
	<g>
		<g>
			<g>
				<path fill="#A6A6A6" d="M373.58-105.5h-628.752c-2.292,0-4.556-0.055-6.842-0.042c-1.913,0.012-3.812,0.021-5.744,0.051
					c-4.196,0.049-8.383,0.405-12.524,1.091c-4.135,0.702-8.139,2.013-11.88,3.911c-3.736,1.914-7.15,4.395-10.116,7.364
					c-2.982,2.959-5.469,6.38-7.364,10.13c-1.899,3.745-3.217,7.753-3.907,11.896c-0.695,4.134-0.703,8.318-0.751,12.511
					c-0.058,1.918,0.273,3.839,0.273,5.756V91.63c0,1.941-0.331,3.822-0.273,5.764c0.049,4.193,0.241,8.373,0.935,12.512
					c0.687,4.145,1.914,8.154,3.815,11.902c1.895,3.734,4.333,7.146,7.318,10.089c2.957,2.983,6.348,5.469,10.093,7.366
					c3.741,1.904,7.734,3.234,11.869,3.942c4.141,0.685,8.323,1.051,12.519,1.105c1.932,0.042,3.828,0.123,5.741,0.123
					c2.286,0.012,4.547,0.066,6.839,0.066H373.58c2.245,0,4.528-0.055,6.773-0.066c1.905,0,3.859-0.054,5.764-0.096
					c4.186-0.055,8.367-0.435,12.5-1.119c4.149-0.72,8.166-2.052,11.926-3.949c3.74-1.897,7.153-4.386,10.106-7.369
					c2.979-2.955,5.47-6.363,7.386-10.091c1.886-3.748,3.191-7.766,3.87-11.903c0.695-4.139,1.087-8.319,1.16-12.513
					c0.024-1.941,0.441-3.822,0.441-5.764c0.049-2.269,0.465-4.527,0.465-6.834V-46.01c0-2.288-0.416-4.559-0.465-6.823
					c0-1.917-0.209-3.838-0.233-5.756c-0.073-4.193-0.568-8.377-1.264-12.512c-0.683-4.139-2.036-8.148-3.922-11.896
					c-3.857-7.519-10-13.639-17.52-17.5c-3.76-1.892-7.789-3.213-11.938-3.918c-4.133-0.689-8.32-1.059-12.506-1.104
					c-1.904-0.031-3.862-0.012-5.767-0.024C378.111-105.555,375.826-105.5,373.58-105.5L373.58-105.5z"/>
				<path d="M-261.984,138.922c-1.904,0-3.762-0.024-5.651-0.067c-3.912-0.056-7.819-0.391-11.682-1.02
					c-3.602-0.623-7.093-1.775-10.355-3.424c-3.231-1.636-6.18-3.777-8.731-6.354c-2.587-2.539-4.743-5.493-6.377-8.729
					c-1.654-3.26-2.799-6.751-3.395-10.358c-0.643-3.876-0.851-7.794-0.9-11.718c-0.04-1.317,0.047-5.707,0.047-5.707V-52.833
					c0,0-0.084-4.321-0.047-5.591c0.049-3.922,0.324-7.831,0.964-11.701c0.595-3.616,1.707-7.12,3.362-10.388
					c1.629-3.235,3.754-6.186,6.326-8.737c2.57-2.576,5.518-4.733,8.756-6.391c3.256-1.645,6.734-2.789,10.33-3.399
					c3.875-0.636,7.792-0.657,11.719-0.705l5.638,0.244h642.304l5.708-0.241c3.893,0.044,7.776,0.223,11.614,0.855
					c3.633,0.617,7.147,1.69,10.443,3.343c6.481,3.342,11.768,8.591,15.094,15.084c1.63,3.248,2.752,6.705,3.345,10.287
					c0.653,3.9,1.014,7.833,1.088,11.786c0.019,1.77,0.163,3.665,0.163,5.558c0.049,2.343,0.193,4.57,0.193,6.818V84.796
					c0,2.27-0.145,4.485-0.193,6.72c0,2.032-0.072,3.893-0.098,5.811c-0.075,3.882-0.464,7.758-1.104,11.584
					c-0.58,3.632-1.738,7.152-3.393,10.438c-1.647,3.204-3.8,6.12-6.356,8.66c-2.553,2.589-5.512,4.743-8.753,6.391
					c-3.284,1.666-6.793,2.82-10.426,3.437c-3.863,0.634-7.771,0.971-11.683,1.02c-1.833,0.043-3.748,0.067-5.611,0.067
					l-6.774,0.012L-261.984,138.922z"/>
			</g>
			<g id="_Group_">
				<g id="_Group_2">
					<g id="_Group_3">
						<path id="_Path_" fill="#FFFFFF" d="M-159.957,21.27c0.133-10.605,5.694-20.397,14.728-25.952
							c-5.725-8.175-14.969-13.172-24.945-13.481c-10.495-1.105-20.669,6.276-26.019,6.276c-5.451,0-13.684-6.171-22.554-5.987
							c-11.666,0.378-22.277,6.851-27.953,17.05c-12.089,20.926-3.074,51.685,8.505,68.605c5.795,8.275,12.563,17.528,21.423,17.204
							c8.67-0.359,11.909-5.531,22.373-5.531c10.367,0,13.403,5.531,22.443,5.317c9.301-0.146,15.165-8.313,20.754-16.674
							c4.161-5.91,7.364-12.428,9.488-19.337C-152.761,44.09-159.945,33.271-159.957,21.27z"/>
						<path id="_Path_2" fill="#FFFFFF" d="M-177.031-29.292c5.071-6.089,7.57-13.917,6.967-21.817
							c-7.75,0.814-14.909,4.516-20.048,10.372c-5.078,5.778-7.647,13.336-7.15,21.01
							C-189.407-19.645-181.952-23.173-177.031-29.292z"/>
					</g>
				</g>
				<g>
					<path fill="#FFFFFF" d="M-50.375,64.5h-29.584l-7.104,21h-12.53l28.021-78h13.018l28.022,78h-12.743L-50.375,64.5z
						 M-76.894,54.5h23.449l-11.561-34h-0.323L-76.894,54.5z"/>
					<path fill="#FFFFFF" d="M29.983,56.701c0,17.585-9.409,29.291-23.613,29.291C-0.972,86.376-7.889,82.5-11.435,76.5h0.406v28
						h-12v-76h11v10h0.168c3.704-7,10.629-10.584,18.016-10.347C20.518,28.153,29.983,39.165,29.983,56.701z M18.047,56.701
						c0-11.458-5.922-18.988-14.954-18.988c-8.874,0-14.845,7.69-14.845,18.988c0,11.402,5.971,19.036,14.845,19.036
						C12.125,75.737,18.047,68.262,18.047,56.701z"/>
					<path fill="#FFFFFF" d="M92.269,56.701c0,17.585-9.412,29.291-23.622,29.291c-7.338,0.384-14.253-3.492-17.8-9.492h0.125v28
						h-12v-76h12v10h-0.553c3.704-7,10.626-10.584,18.021-10.347C82.796,28.153,92.269,39.165,92.269,56.701z M80.331,56.701
						c0-11.458-5.922-18.988-14.955-18.988c-8.877,0-14.846,7.69-14.846,18.988c0,11.402,5.969,19.036,14.846,19.036
						C74.409,75.737,80.331,68.262,80.331,56.701z"/>
					<path fill="#FFFFFF" d="M133.43,63.5c0.854,8,8.337,12.682,18.555,12.682c9.791,0,16.835-5.086,16.835-12.025
						c0-6.026-4.249-9.648-14.307-12.119l-10.059-2.432c-14.26-3.443-20.875-10.113-20.875-20.93
						c0-13.391,11.67-22.176,28.246-22.176c16.396,0,27.639,9,28.017,23h-11.72c-0.707-8-7.104-12.833-16.468-12.833
						c-9.35,0-15.759,4.522-15.759,11.407c0,5.487,4.09,8.613,14.1,11.085l8.546,2.047c15.93,3.766,22.546,10.138,22.546,21.489
						c0,14.52-11.572,23.668-29.968,23.668c-17.213,0-28.833-8.863-29.579-22.863H133.43z"/>
					<path fill="#FFFFFF" d="M206.972,15.5v13h10v10h-10v30.297c0,4.848,1.809,7.107,6.533,7.107
						c1.281-0.021,2.467-0.118,3.467-0.271v9.143c-2,0.399-4.098,0.582-6.258,0.539c-11.461,0-15.742-4.304-15.742-15.278V38.5h-8
						v-10h8v-13H206.972z"/>
					<path fill="#FFFFFF" d="M223.141,56.701c0-17.805,10.485-28.992,26.842-28.992c16.409,0,26.845,11.188,26.845,28.992
						c0,17.853-10.388,28.991-26.845,28.991C233.529,85.692,223.141,74.554,223.141,56.701z M264.985,56.701
						c0-12.214-5.59-19.422-15.003-19.422c-9.411,0-15.001,7.263-15.001,19.422c0,12.262,5.59,19.414,15.001,19.414
						C259.396,76.115,264.985,68.963,264.985,56.701L264.985,56.701z"/>
					<path fill="#FFFFFF" d="M286.972,28.5h11v10h-0.222c1.537-6,7.544-10.698,13.927-10.456c1.336-0.005,3.295-0.092,4.295,0.202
						v10.863c-2-0.517-3.77-0.751-5.539-0.702c-6.457-0.261-12.083,4.762-12.346,11.22c-0.023,0.599-0.115,1.203-0.115,1.801V85.5
						h-11V28.5z"/>
					<path fill="#FFFFFF" d="M368.893,68.5c-1.563,11-11.573,17.257-24.366,17.257c-16.465,0-26.685-11.061-26.685-28.756
						c0-17.749,10.497-29.276,26.415-29.276c15.648,0,25.715,10.738,25.715,27.896v4.88h-40v-0.198
						c-1,8.112,5.074,15.266,13.18,15.978c0.609,0.056,1.127,0.134,1.744,0.115c5.632,0.531,10.85-1.895,12.963-7.895H368.893z
						 M329.972,51.5h27.946c0.415-7-5.328-13.938-12.829-14.354c-0.354-0.02-0.527-0.028-0.875-0.023
						c-7.91-0.048-14.242,6.327-14.242,14.237C329.972,51.396,329.972,51.5,329.972,51.5z"/>
				</g>
			</g>
		</g>
		<g id="_Group_4">
			<g>
				<path fill="#FFFFFF" d="M-93.34-32.383c0-12.095,6.433-19.305,16.796-19.305c7.746-0.384,14.49,5.188,15.51,13.188h-5.769
					c-0.997-5-5.103-7.966-9.741-7.785c-6.696,0-10.882,5.323-10.882,14.033c0,8.685,4.187,14.379,10.907,14.379
					c4.468,0.336,8.545-2.627,9.716-6.627h5.769c-1.166,7-7.91,12.54-15.485,11.964C-86.882-12.536-93.34-20.313-93.34-32.383z"/>
				<path fill="#FFFFFF" d="M-54.699-27.833c-0.702-7.33,4.672-13.84,12.002-14.542c7.331-0.701,13.84,4.673,14.542,12.003
					c0.082,0.843,0.082,1.693,0,2.538c0.713,7.331-4.65,13.852-11.978,14.563c-7.332,0.714-13.854-4.649-14.567-11.979
					C-54.781-26.11-54.781-26.972-54.699-27.833z M-33.867-27.833c0-6.101-2.741-9.668-7.551-9.668
					c-4.827,0-7.543,3.567-7.543,9.668c0,6.15,2.717,9.689,7.543,9.689C-36.608-18.144-33.867-21.708-33.867-27.833z"/>
				<path fill="#FFFFFF" d="M-20.028-41.5h5v5h0.088c1.443-4,4.816-5.765,8.398-5.475c5.041-0.379,9.82,3.169,10.199,8.212
					c0.053,0.676,0.314,1.124,0.314,1.796V-13.5h-6v-17.074c0-4.521-2.128-6.771-6.236-6.771c-3.562-0.166-6.604,2.587-6.772,6.15
					c-0.015,0.327,0.009,0.655,0.009,0.981V-13.5h-5V-41.5z"/>
				<path fill="#FFFFFF" d="M22.077-42.422c6.329,0,10.468,3.922,11.012,7.922H27.76c-0.512-2-2.534-3.398-5.683-3.398
					c-3.1,0-5.456,1.463-5.456,3.66c0,1.682,1.422,2.738,4.473,3.437l4.676,1.082c5.354,1.241,7.862,3.541,7.862,7.676
					c0,5.299-4.938,9.197-11.658,9.197c-6.696,0-11.06-2.654-11.555-7.654h5.561c0.987,2,3.515,3.537,6.122,3.155
					c3.461,0,5.921-1.73,5.921-3.98c0-1.678-1.319-2.854-4.138-3.525l-4.907-1.182c-5.354-1.268-7.831-3.685-7.831-7.872
					C11.146-38.893,15.717-42.422,22.077-42.422z"/>
				<path fill="#FFFFFF" d="M40.644-46.5l6.49-8h6.51l-7.262,8H40.644z M41.972-41.5h5v28h-5V-41.5z"/>
				<path fill="#FFFFFF" d="M55.396-10.5h5.683c0.47,2,2.799,3.145,6.547,3.145c4.625,0,7.346-2.414,7.346-6.135v-5.01H74.6
					c-1.777,3-5.135,4.715-8.686,4.532c-7.186,0-11.628-5.652-11.628-14.079c0-8.581,4.491-13.815,11.683-13.815
					c3.644-0.129,7.05,1.362,8.838,5.362h1.165v-5h5v27.983c0,6.436-5.242,10.735-13.203,10.735
					C60.739-2.782,55.988-5.5,55.396-10.5z M75.118-28.171c0-5.607-2.899-9.199-7.63-9.199c-4.779,0-7.465,3.592-7.465,9.199
					c0,5.608,2.686,9.201,7.465,9.201C72.249-18.97,75.118-22.536,75.118-28.171z"/>
				<path fill="#FFFFFF" d="M113.972-13.5h-6v-4h-0.615c-1.465,3-4.883,4.986-8.51,4.654c-5.028,0.357-8.996-3.616-9.355-8.652
					c-0.043-0.646,0.48-1.479,0.48-2.124V-41.5h5v16.432c0,4.547,1.707,6.719,5.783,6.719c3.516,0.333,6.765-2.243,7.099-5.756
					c0.037-0.442,0.118-0.888,0.118-1.327V-41.5h6V-13.5z"/>
				<path fill="#FFFFFF" d="M145.797-20.5c-1.562,5-6.702,8.312-12.196,7.719c-7.062,0.186-12.933-5.597-13.123-12.656
					c-0.012-0.695,0.025-1.499,0.122-2.189c-0.95-7.104,4.035-13.692,11.139-14.644c0.605-0.081,1.646-0.145,2.265-0.14
					c7.822,0,12.969,5.324,12.969,14.162v2.748h-20v-0.499c-1,4.091,2.338,7.693,6.428,8.035c0.238,0.022,0.297,0.455,0.528,0.451
					c2.722,0.327,5.186-0.987,6.521-2.987H145.797z M126.972-29.5h13.503c0.274-4-2.533-7.456-6.274-7.731
					c-0.221-0.018-0.08-0.254-0.299-0.247c-3.969-0.049-6.93,2.902-6.93,6.877C126.972-30.541,126.972-29.5,126.972-29.5z"/>
				<path fill="#FFFFFF" d="M153.972-52.5h6v39h-6V-52.5z"/>
				<path fill="#FFFFFF" d="M167.122-27.833c-0.707-7.33,4.67-13.84,12-14.542c7.331-0.701,13.842,4.673,14.538,12.003
					c0.086,0.843,0.086,1.693,0,2.538c0.72,7.331-4.65,13.852-11.976,14.563c-7.331,0.714-13.855-4.649-14.562-11.979
					C167.037-26.11,167.037-26.972,167.122-27.833z M187.948-27.833c0-6.101-2.735-9.668-7.545-9.668
					c-4.832,0-7.545,3.567-7.545,9.668c0,6.15,2.713,9.689,7.545,9.689C185.213-18.144,187.948-21.708,187.948-27.833z"/>
				<path fill="#FFFFFF" d="M240.182-20.5c-1.552,5-6.688,8.312-12.196,7.719c-7.055,0.186-12.927-5.597-13.109-12.656
					c-0.024-0.695,0.019-1.499,0.11-2.189c-0.953-7.104,4.04-13.692,11.144-14.644c0.611-0.081,1.445-0.145,2.057-0.14
					c7.838,0,12.785,5.324,12.785,14.162v2.748h-20v-0.499c0,4.091,2.531,7.693,6.625,8.035c0.232,0.022,0.39,0.455,0.629,0.451
					c2.709,0.327,5.279-0.987,6.609-2.987H240.182z M220.972-29.5h13.887c0.28-4-2.527-7.456-6.262-7.731
					c-0.22-0.018-0.279-0.254-0.5-0.247c-3.979-0.049-7.125,2.902-7.125,6.877C220.972-30.541,220.972-29.5,220.972-29.5
					L220.972-29.5z"/>
				<path fill="#FFFFFF" d="M247.972-41.5h6v5h-0.229c1.439-4,4.811-5.765,8.398-5.475c5.041-0.379,9.48,3.169,9.857,8.212
					c0.051,0.676-0.027,1.124-0.027,1.796V-13.5h-5v-17.074c0-4.521-2.285-6.771-6.4-6.771c-3.559-0.166-6.523,2.587-6.693,6.15
					c-0.012,0.327,0.094,0.655,0.094,0.981V-13.5h-6V-41.5z"/>
				<path fill="#FFFFFF" d="M319.54-20.5c-1.562,5-6.703,8.312-12.195,7.719c-7.063,0.186-12.935-5.597-13.123-12.656
					c-0.012-0.695,0.024-1.499,0.121-2.189c-0.951-7.104,4.034-13.692,11.139-14.644c0.605-0.081,1.273-0.145,1.893-0.14
					c7.824,0,12.598,5.324,12.598,14.162v2.748h-20v-0.499c0,4.091,2.711,7.693,6.801,8.035c0.238,0.022,0.479,0.455,0.713,0.451
					c2.722,0.327,5.37-0.987,6.707-2.987H319.54z M299.972-29.5h14.246c0.274-4-2.534-7.456-6.275-7.731
					c-0.219-0.018-0.451-0.254-0.67-0.247c-3.973-0.049-6.301,2.902-7.301,6.877C299.972-30.541,299.972-29.5,299.972-29.5
					L299.972-29.5z"/>
				<path fill="#FFFFFF" d="M327.972-52.5h6v39h-6V-52.5z"/>
			</g>
		</g>
	</g>
</g>
</svg>
