<?xml version="1.0" encoding="utf-8"?>
<!-- Generator: Adobe Illustrator 15.1.0, SVG Export Plug-In . SVG Version: 6.00 Build 0)  -->
<!DOCTYPE svg PUBLIC "-//W3C//DTD SVG 1.1//EN" "http://www.w3.org/Graphics/SVG/1.1/DTD/svg11.dtd">
<svg version="1.1" id="Layer_1" xmlns="http://www.w3.org/2000/svg" xmlns:xlink="http://www.w3.org/1999/xlink" x="0px" y="0px"
	 width="800px" height="340.945px" viewBox="0 0 800 340.945" enable-background="new 0 0 800 340.945" xml:space="preserve">
<path d="M345.905,217.764h-28.536v-9.982c-5.556,7.25-14.032,12.431-26.558,12.431c-24.675,0-42.946-21.473-42.946-48.784
	c0-27.123,18.271-48.597,43.04-48.597c12.432,0,20.908,5.275,26.464,12.527v-9.984h28.536V217.764z M278.191,171.521
	c0,12.055,7.909,21.19,19.683,21.19c11.584,0,19.778-8.947,19.778-21.19c0-12.242-8.193-21.189-19.778-21.189
	C286.101,150.332,278.191,159.467,278.191,171.521"/>
<path d="M448.087,157.112v60.652h-29.479v-50.198c0-10.925-5.463-17.047-14.598-17.047c-8.194,0-14.975,5.558-14.975,17.518v49.727
	h-29.477v-92.39h28.252v11.583c5.84-9.7,15.163-14.126,27.5-14.126C433.771,122.831,448.087,135.733,448.087,157.112"/>
<path d="M530.509,151.461h-31.55v27.03c0,10.642,5.651,14.219,13.092,14.219c5.462,0,11.396-3.011,16.01-5.743l10.172,22.979
	c-8.665,6.028-17.895,10.268-32.774,10.268c-24.77,0-35.978-14.787-35.978-37.956v-30.795h-17.233v-26.089h17.233V98.438h29.479
	v26.935h31.55V151.461z"/>
<path d="M630.449,171.521c0,3.015-0.188,7.156-0.565,9.136h-62.628c2.449,10.077,9.605,14.785,19.778,14.785
	c6.874,0,14.313-2.826,20.153-8.099l19.024,17.706c-9.607,9.605-23.64,15.162-40.687,15.162c-29.006,0-48.689-19.307-48.689-48.126
	c0-29.101,19.307-49.255,47.372-49.255C611.614,122.831,630.355,142.609,630.449,171.521 M567.35,162.009h33.621
	c-2.354-9.229-8.099-14.126-16.668-14.126C575.166,147.883,569.61,152.875,567.35,162.009"/>
<path d="M703.077,124.244l-2.729,29.384c-3.956-1.318-9.513-2.449-14.786-2.449c-10.455,0-16.858,5.18-16.858,16.669v49.915h-29.479
	v-92.389h28.254v10.641c5.367-8.945,13.938-13.185,25.239-13.185C697.051,122.83,700.818,123.584,703.077,124.244"/>
<path d="M800.626,217.764H772.09v-9.982c-5.557,7.25-14.032,12.431-26.561,12.431c-24.672,0-42.943-21.473-42.943-48.784
	c0-27.123,18.271-48.597,43.04-48.597c12.432,0,20.907,5.275,26.464,12.527v-9.984h28.536V217.764z M732.912,171.521
	c0,12.055,7.909,21.19,19.684,21.19c11.584,0,19.776-8.947,19.776-21.19c0-12.242-8.192-21.189-19.776-21.189
	C740.821,150.332,732.912,159.467,732.912,171.521"/>
<polygon fill="#08FA85" points="605.039,268.747 615.097,243.855 624.122,243.855 614.026,268.747 "/>
<polygon fill="#0AEFFD" points="594.346,268.747 602.198,248.948 611.223,248.948 603.334,268.747 "/>
<polygon fill="#FD2B5C" points="583.597,268.747 589.411,254.039 598.436,254.039 592.585,268.747 "/>
<path d="M627.037,252.573c5.122,0,7.246,3.075,7.246,7.045c0,6.347-3.898,10.493-10.493,10.493h-40.832l-3.381,8.721h43.111
	c14.092,0,21.612-8.895,21.612-20.611c0-7.497-6.021-14.366-16.164-14.366h-2.256l-3.55,8.719H627.037z"/>
<polygon points="672.521,265.408 656.509,265.408 655.437,270.421 672.546,270.421 670.75,278.853 643.964,278.853 651.396,243.936 
	678.156,243.936 676.361,252.364 659.278,252.364 658.305,256.978 674.316,256.978 "/>
<polygon points="702.328,266.157 686.468,266.157 683.773,278.853 674.097,278.853 681.528,243.936 707.892,243.936 
	706.096,252.364 689.41,252.364 688.263,257.726 704.125,257.726 "/>
<polygon points="738.575,252.663 728.873,252.663 723.312,278.852 713.635,278.852 719.194,252.663 709.494,252.663 
	711.365,243.934 740.445,243.934 "/>
<polygon points="764.95,265.408 748.938,265.408 747.866,270.421 764.975,270.421 763.179,278.853 736.393,278.853 743.824,243.936 
	770.586,243.936 768.791,252.364 751.706,252.364 750.733,256.978 766.746,256.978 "/>
<path d="M788.373,243.936c7.606,0,11.872,4.864,11.872,10.325c0,5.263-2.719,10.499-11.049,11.872l8.281,12.719h-10.824
	l-7.357-12.396h-0.45l-2.643,12.396h-9.679l7.434-34.916H788.373z M781.306,252.439l-1.322,6.21h5.387
	c3.367,0,4.764-1.547,4.764-3.491c0-1.671-1.445-2.719-3.69-2.719H781.306z"/>
<path d="M723.131,286.524c-1.455-1.086-3.229-1.429-4.535-1.429c-2.037,0-2.938,0.94-3.025,1.926
	c-0.091,1.052,0.923,1.483,2.272,1.75l0.914,0.177c2.569,0.486,4.422,1.706,4.209,4.14c-0.276,3.166-3.167,5.202-7.064,5.202
	c-1.881,0-4.731-0.564-6.407-2.17l1.999-2.479c1.354,1.339,3.519,1.794,4.858,1.794c1.738,0,3.147-0.676,3.255-1.916
	c0.086-0.976-0.782-1.428-2.568-1.761l-0.969-0.187c-2.483-0.466-4.069-1.827-3.868-4.119c0.246-2.812,2.604-5.226,6.722-5.226
	c1.849,0,4.044,0.345,6.072,1.817L723.131,286.524z"/>
<path d="M795.61,286.524c-1.454-1.086-3.229-1.429-4.535-1.429c-2.037,0-2.938,0.94-3.024,1.926
	c-0.092,1.052,0.922,1.483,2.271,1.75l0.914,0.177c2.57,0.486,4.422,1.706,4.209,4.14c-0.276,3.166-3.167,5.202-7.062,5.202
	c-1.883,0-4.733-0.564-6.408-2.17l2-2.479c1.354,1.339,3.517,1.794,4.856,1.794c1.738,0,3.147-0.676,3.257-1.916
	c0.084-0.976-0.783-1.428-2.569-1.761l-0.97-0.187c-2.482-0.466-4.067-1.827-3.867-4.119c0.246-2.812,2.604-5.226,6.723-5.226
	c1.848,0,4.043,0.345,6.073,1.817L795.61,286.524z"/>
<path d="M728.006,292.336l-1.703,5.666h-3.155l4.655-15.496h5.534c3.354,0,4.974,1.859,4.76,4.307
	c-0.29,3.319-2.841,5.523-6.925,5.523H728.006z M730.101,285.35l-1.251,4.163h2.724c2.015,0,3.175-0.853,3.307-2.368
	c0.1-1.129-0.618-1.795-2.156-1.795H730.101z"/>
<path d="M755.067,289.469c-0.42,4.805-4.369,8.821-9.472,8.821c-4.316,0-7.275-2.878-6.893-7.249
	c0.419-4.794,4.368-8.811,9.473-8.811C752.491,282.23,755.45,285.108,755.067,289.469 M741.953,290.831
	c-0.239,2.733,1.467,4.492,4.112,4.492c3.101,0,5.487-2.61,5.752-5.645c0.238-2.724-1.478-4.494-4.101-4.494
	C744.594,285.185,742.219,287.807,741.953,290.831"/>
<path d="M764.767,282.506c3.344,0,4.984,1.859,4.782,4.185c-0.194,2.214-1.781,4.915-6.161,5.136l3.721,6.177H763.5l-3.468-6.166
	h-0.818l-1.847,6.166h-3.154l4.654-15.497H764.767z M761.163,285.361l-1.139,3.786h3.265c2.27,0,2.943-1.118,3.031-2.136
	c0.087-1.009-0.675-1.65-2.18-1.65H761.163z"/>
<polygon points="783.708,285.395 779.069,285.395 775.288,298.003 772.133,298.003 775.916,285.395 771.188,285.395 
	772.062,282.506 784.58,282.506 "/>
<path d="M563.445,266.893c0,7.395-5.44,12.811-12.438,12.811c-4.49,0-7.817-2.033-9.799-5.125v4.729h-3.01v-38.031h3.01v17.906
	c1.981-3.063,5.309-5.125,9.799-5.125C558.005,254.057,563.445,259.498,563.445,266.893 M541.401,266.893
	c0,5.706,4.066,9.984,9.666,9.984c5.729,0,9.692-4.385,9.692-9.984c0-5.626-4.015-10.01-9.692-10.01
	C545.468,256.883,541.401,261.188,541.401,266.893"/>
<polygon points="568.643,295.703 565.537,295.703 572.66,278.643 561.797,254.05 564.953,254.05 574.141,275.143 583.016,254.05 
	586.096,254.05 "/>
<path fill="#08FA85" d="M158.849,264.603c-4.543-0.611-9.055-1.553-13.407-2.798l-8.925-2.553l8.921-2.565
	c16.068-4.621,30.06-13.773,41.586-27.199c3.206-3.734,7.868-5.876,12.791-5.876c3.497,0,6.857,1.071,9.716,3.094l8.135,5.76
	l-1.997,2.225c-15.183,16.918-34.062,26.982-56.116,29.913l-0.354,0.049L158.849,264.603z"/>
<path fill="#37053B" d="M199.815,226.273c2.839,0,5.702,0.853,8.177,2.605l5.696,4.032c-14.565,16.229-32.988,26.197-54.485,29.055
	c-4.444-0.601-8.798-1.511-13.029-2.72c16.638-4.786,31.077-14.287,42.871-28.025C191.836,227.971,195.805,226.273,199.815,226.273
	 M199.815,220.948c-5.7,0-11.099,2.48-14.811,6.805c-11.184,13.025-24.743,21.899-40.302,26.374l-17.845,5.133l17.852,5.104
	c4.48,1.283,9.117,2.25,13.785,2.878l0.706,0.097l0.706-0.097c22.699-3.015,42.127-13.369,57.746-30.773l3.991-4.448l-4.877-3.453
	l-5.695-4.035C207.758,222.188,203.866,220.948,199.815,220.948"/>
<path fill="#08FA85" d="M199.754,118.321c-5.148,0-9.932-2.3-13.125-6.311l-0.631-0.783c-10.826-13.304-24.467-22.381-40.542-26.983
	l-8.901-2.549l8.896-2.567c4.294-1.241,8.763-2.18,13.283-2.789l0.353-0.047l0.351,0.045c22.725,2.991,42.322,13.893,56.673,31.528
	l1.933,2.541l-9.906,5.68C205.587,117.547,202.688,118.321,199.754,118.321"/>
<path fill="#37053B" d="M159.09,78.977c22.413,2.95,41.073,13.509,54.956,30.568c0.016,0.019,0.03,0.038,0.045,0.057l-7.28,4.173
	c-2.212,1.27-4.647,1.884-7.058,1.884c-4.18,0-8.285-1.843-11.042-5.307c-0.215-0.271-0.432-0.539-0.649-0.807
	c-11.086-13.621-25.22-23.094-41.875-27.861C150.345,80.483,154.653,79.575,159.09,78.977 M159.081,73.605l-0.703,0.095
	c-4.647,0.626-9.247,1.592-13.667,2.868l-17.794,5.137l17.806,5.097c15.543,4.45,28.735,13.232,39.209,26.103
	c0.207,0.253,0.411,0.508,0.615,0.763c3.701,4.648,9.243,7.314,15.207,7.314c3.397,0,6.755-0.896,9.707-2.589l7.28-4.173
	l5.448-3.125l-3.974-4.864l-0.042-0.054c-14.785-18.167-34.977-29.4-58.388-32.481L159.081,73.605z"/>
<path fill="#0AEFFD" d="M225.738,118.321c-5.149,0-9.934-2.3-13.125-6.311l-0.586-0.727c-13.715-16.854-31.629-26.817-53.284-29.667
	l-19.812-2.606l19.803-2.672c4.349-0.587,8.802-0.884,13.235-0.884c28.717,0,53.016,11.208,70.27,32.411l1.98,2.431l-10.097,5.789
	C231.571,117.547,228.672,118.321,225.738,118.321"/>
<path fill="#37053B" d="M171.971,78.117c28.36,0,51.668,11.109,68.205,31.428l-7.379,4.23c-2.214,1.271-4.648,1.884-7.059,1.884
	c-4.18,0-8.286-1.845-11.042-5.307c-0.2-0.252-0.401-0.5-0.604-0.75c-0.015-0.018-0.03-0.039-0.046-0.057
	c-13.881-17.059-32.542-27.618-54.955-30.568C163.273,78.413,167.571,78.117,171.971,78.117 M171.971,72.792
	c-4.554,0-9.127,0.305-13.593,0.908l-39.608,5.342l39.625,5.215c20.961,2.758,38.295,12.397,51.521,28.65l0.052,0.065
	c0.184,0.225,0.375,0.461,0.564,0.699c3.698,4.647,9.242,7.313,15.206,7.313c3.396,0,6.754-0.896,9.707-2.589l7.378-4.231
	l5.439-3.118l-3.958-4.863C226.527,84.339,201.516,72.792,171.971,72.792"/>
<path fill="#0AEFFD" d="M172.199,265.49c-4.489,0-8.98-0.298-13.351-0.888l-19.725-2.656l19.729-2.621
	c20.759-2.76,38.543-12.244,52.855-28.192c0.499-0.557,0.994-1.121,1.483-1.692c3.183-3.71,7.821-5.837,12.727-5.837
	c3.507,0,6.877,1.072,9.742,3.102l8.137,5.759l-1.997,2.226C223.718,254.84,199.651,265.49,172.199,265.49"/>
<path fill="#37053B" d="M225.919,226.266c2.85,0,5.721,0.855,8.203,2.611l5.697,4.034c-17.45,19.445-40.44,29.917-67.618,29.917
	c-4.399,0-8.74-0.29-12.998-0.865c21.497-2.855,39.921-12.822,54.484-29.052c0.515-0.572,1.023-1.151,1.526-1.739
	C217.984,227.941,221.929,226.266,225.919,226.266 M225.919,220.94c-5.687,0-11.061,2.465-14.747,6.766
	c-0.479,0.557-0.959,1.106-1.447,1.649c-13.875,15.464-31.11,24.657-51.223,27.33l-39.456,5.244l39.448,5.312
	c4.487,0.604,9.1,0.911,13.707,0.911c28.227,0,52.98-10.957,71.58-31.685l3.992-4.448l-4.877-3.453l-5.698-4.033
	C233.88,222.184,229.979,220.94,225.919,220.94"/>
<path fill="#FD2B5C" d="M172.88,338.283c-48.19,0-91.713-16.754-122.546-47.173c-30.803-30.39-47.767-73.232-47.767-120.638
	c0-47.405,16.963-90.249,47.767-120.639C81.167,19.415,124.69,2.662,172.88,2.662c62.63,0,116.392,29.167,143.813,78.02l1.291,2.3
	l-57.732,33.103c-2.552,1.463-5.451,2.236-8.383,2.236c-5.149,0-9.934-2.3-13.125-6.311l-0.636-0.788
	C221.902,91.307,199.03,80.78,171.969,80.78c-4.196,0-8.41,0.281-12.523,0.834c-4.263,0.577-8.475,1.461-12.519,2.628
	c-36.95,10.69-59.874,43.728-59.874,86.23c0,43.267,22.375,75.495,59.852,86.213c4.107,1.175,8.364,2.062,12.653,2.64
	c4.137,0.558,8.39,0.84,12.641,0.84c26.267,0,48.351-9.768,65.638-29.032l0.13-0.145c3.678-4.111,8.991-6.492,14.542-6.492
	c4.031,0,7.904,1.234,11.198,3.568l51.365,36.365l-1.447,2.155C282.641,312.819,232.657,338.283,172.88,338.283"/>
<path fill="#37053B" d="M172.88,5.325c60.737,0,114.421,28.434,141.491,76.66l-55.445,31.791c-2.214,1.27-4.65,1.883-7.059,1.883
	c-4.18,0-8.286-1.843-11.042-5.307c-0.216-0.271-0.433-0.539-0.65-0.807c-16.536-20.32-39.845-31.428-68.207-31.428
	c-4.398,0-8.696,0.296-12.879,0.86c-4.437,0.599-8.744,1.507-12.902,2.708c-0.016,0.004-0.033,0.01-0.049,0.014
	c-36.7,10.62-61.747,44.045-61.747,88.775c0,47.855,26.662,78.729,61.783,88.772c4.23,1.21,8.584,2.12,13.028,2.72
	c4.258,0.573,8.598,0.861,12.996,0.861c27.179,0,50.169-10.469,67.619-29.915c0.032-0.036,0.065-0.073,0.099-0.11
	c3.316-3.706,7.934-5.641,12.592-5.641c3.356,0,6.735,1.004,9.662,3.077l49.244,34.864c-29.116,43.449-77.569,70.52-138.534,70.52
	c-98.269,0-167.65-68.699-167.65-165.148C5.23,74.022,74.612,5.325,172.88,5.325 M172.88,0c-24.786,0-48.2,4.242-69.591,12.606
	c-20.897,8.172-39.343,20.06-54.825,35.334C32.99,63.206,20.946,81.393,12.666,101.993c-8.467,21.065-12.761,44.106-12.761,68.48
	c0,24.373,4.294,47.413,12.761,68.479c8.28,20.601,20.324,38.788,35.799,54.053c15.482,15.274,33.927,27.161,54.825,35.333
	c21.391,8.367,44.805,12.607,69.591,12.607c30.64,0,58.792-6.586,83.674-19.571c24.041-12.546,43.987-30.48,59.284-53.306
	l2.89-4.312l-4.236-3l-49.244-34.865c-3.75-2.655-8.154-4.057-12.739-4.057c-6.308,0-12.343,2.701-16.561,7.415l-0.087,0.1
	c-16.768,18.683-38.184,28.152-63.662,28.152c-4.132,0-8.267-0.273-12.285-0.814c-4.161-0.56-8.292-1.423-12.277-2.563
	c-16.889-4.828-31.15-14.599-41.243-28.251c-10.911-14.76-16.678-33.917-16.678-55.4c0-20.535,5.577-39.241,16.127-54.097
	c10.221-14.389,24.666-24.612,41.774-29.564c3.968-1.145,8.051-2.001,12.184-2.559c3.996-0.538,8.091-0.812,12.168-0.812
	c26.234,0,48.391,10.189,64.077,29.464c0.204,0.253,0.411,0.506,0.613,0.763c3.7,4.648,9.243,7.314,15.209,7.314
	c3.396,0,6.754-0.896,9.707-2.589l55.445-31.79l4.577-2.625l-2.582-4.601c-13.715-24.434-34.545-44.661-60.24-58.496
	C233.405,7.22,203.703,0,172.88,0"/>
</svg>
