<?xml version="1.0" encoding="utf-8"?>
<!-- Generator: Adobe Illustrator 15.1.0, SVG Export Plug-In . SVG Version: 6.00 Build 0)  -->
<!DOCTYPE svg PUBLIC "-//W3C//DTD SVG 1.1//EN" "http://www.w3.org/Graphics/SVG/1.1/DTD/svg11.dtd">
<svg version="1.1" id="Layer_1" xmlns="http://www.w3.org/2000/svg" xmlns:xlink="http://www.w3.org/1999/xlink" x="0px" y="0px"
	 width="800px" height="340.745px" viewBox="0 0 800 340.745" enable-background="new 0 0 800 340.745" xml:space="preserve">
<path fill="#FFFFFF" d="M345.813,217.641h-28.521v-9.979c-5.555,7.248-14.027,12.426-26.547,12.426
	c-24.663,0-42.924-21.463-42.924-48.76c0-27.11,18.262-48.574,43.019-48.574c12.426,0,20.898,5.272,26.453,12.522v-9.979h28.521
	V217.641z M278.131,171.422c0,12.049,7.907,21.179,19.674,21.179c11.579,0,19.767-8.942,19.767-21.179
	c0-12.238-8.188-21.18-19.767-21.18C286.039,150.242,278.131,159.373,278.131,171.422"/>
<path fill="#FFFFFF" d="M447.943,157.019v60.622h-29.464v-50.172c0-10.918-5.459-17.039-14.591-17.039
	c-8.189,0-14.966,5.555-14.966,17.509v49.702h-29.463v-92.344h28.239v11.579c5.836-9.696,15.155-14.12,27.487-14.12
	C433.635,122.755,447.943,135.651,447.943,157.019"/>
<path fill="#FFFFFF" d="M530.325,151.371h-31.534v27.017c0,10.637,5.647,14.213,13.085,14.213c5.459,0,11.39-3.012,16.003-5.743
	l10.165,22.97c-8.66,6.023-17.885,10.26-32.758,10.26c-24.758,0-35.959-14.778-35.959-37.936v-30.781h-17.226v-26.075h17.226V98.375
	h29.464v26.922h31.534V151.371z"/>
<path fill="#FFFFFF" d="M630.216,171.422c0,3.012-0.188,7.153-0.564,9.13h-62.598c2.446,10.072,9.601,14.778,19.768,14.778
	c6.872,0,14.308-2.824,20.144-8.095l19.016,17.697c-9.602,9.602-23.627,15.155-40.665,15.155c-28.993,0-48.667-19.297-48.667-48.101
	c0-29.088,19.297-49.233,47.349-49.233C611.389,122.753,630.122,142.523,630.216,171.422 M567.147,161.915h33.604
	c-2.353-9.226-8.095-14.12-16.66-14.12C574.961,147.794,569.406,152.783,567.147,161.915"/>
<path fill="#FFFFFF" d="M702.809,124.167l-2.73,29.369c-3.953-1.317-9.507-2.447-14.777-2.447c-10.449,0-16.85,5.178-16.85,16.662
	v49.89h-29.464v-92.344h28.239v10.637c5.365-8.942,13.932-13.178,25.228-13.178C696.784,122.755,700.549,123.507,702.809,124.167"/>
<path fill="#FFFFFF" d="M800.309,217.641h-28.521v-9.979c-5.555,7.248-14.027,12.426-26.546,12.426
	c-24.664,0-42.926-21.463-42.926-48.76c0-27.11,18.262-48.574,43.019-48.574c12.426,0,20.898,5.272,26.453,12.522v-9.979h28.521
	V217.641z M732.627,171.422c0,12.049,7.907,21.179,19.674,21.179c11.579,0,19.768-8.942,19.768-21.179
	c0-12.238-8.188-21.18-19.768-21.18C740.534,150.242,732.627,159.373,732.627,171.422"/>
<path fill="#FFFFFF" d="M626.805,252.434c5.12,0,7.243,3.072,7.243,7.042c0,6.343-3.896,10.488-10.488,10.488h-40.812l-3.38,8.714
	h43.092c14.084,0,21.602-8.89,21.602-20.602c0-7.492-6.019-14.359-16.157-14.359h-2.254l-3.549,8.716H626.805z"/>
<polygon fill="#08FA85" points="604.817,268.6 614.871,243.719 623.892,243.719 613.801,268.6 "/>
<polygon fill="#0AEFFD" points="594.13,268.6 601.979,248.809 610.999,248.809 603.114,268.6 "/>
<polygon fill="#FD2B5C" points="583.387,268.6 589.199,253.897 598.22,253.897 592.369,268.6 "/>
<polygon fill="#FFFFFF" points="672.268,265.263 656.264,265.263 655.19,270.273 672.292,270.273 670.497,278.699 643.724,278.699 
	651.152,243.798 677.899,243.798 676.105,252.225 659.03,252.225 658.058,256.837 674.062,256.837 "/>
<polygon fill="#FFFFFF" points="702.06,266.01 686.206,266.01 683.514,278.699 673.841,278.699 681.271,243.798 707.62,243.798 
	705.824,252.225 689.148,252.225 687.999,257.584 703.855,257.584 "/>
<polygon fill="#FFFFFF" points="738.288,252.524 728.59,252.524 723.031,278.699 713.359,278.699 718.919,252.524 709.223,252.524 
	711.092,243.798 740.157,243.798 "/>
<polygon fill="#FFFFFF" points="764.65,265.263 748.646,265.263 747.574,270.273 764.675,270.273 762.881,278.699 736.106,278.699 
	743.536,243.798 770.283,243.798 768.488,252.225 751.413,252.225 750.44,256.837 766.444,256.837 "/>
<path fill="#FFFFFF" d="M788.062,243.798c7.604,0,11.865,4.862,11.865,10.321c0,5.259-2.717,10.494-11.042,11.866l8.274,12.713
	h-10.817l-7.354-12.39h-0.448l-2.643,12.39h-9.672l7.428-34.9H788.062z M780.997,252.299l-1.321,6.208h5.386
	c3.364,0,4.761-1.545,4.761-3.49c0-1.671-1.447-2.718-3.689-2.718H780.997z"/>
<path fill="#FFFFFF" d="M722.852,286.368c-1.455-1.084-3.229-1.427-4.533-1.427c-2.036,0-2.937,0.94-3.023,1.925
	c-0.092,1.051,0.921,1.482,2.27,1.748l0.915,0.178c2.568,0.487,4.42,1.703,4.208,4.137c-0.277,3.165-3.167,5.2-7.061,5.2
	c-1.881,0-4.731-0.563-6.404-2.168l1.996-2.479c1.356,1.34,3.519,1.793,4.856,1.793c1.737,0,3.146-0.675,3.254-1.913
	c0.086-0.974-0.782-1.429-2.567-1.761l-0.968-0.188c-2.482-0.465-4.066-1.825-3.867-4.115c0.246-2.81,2.604-5.222,6.72-5.222
	c1.848,0,4.042,0.343,6.07,1.813L722.852,286.368z"/>
<path fill="#FFFFFF" d="M795.295,286.368c-1.453-1.084-3.228-1.427-4.532-1.427c-2.035,0-2.937,0.94-3.022,1.925
	c-0.092,1.051,0.921,1.482,2.27,1.748l0.913,0.178c2.569,0.487,4.422,1.703,4.208,4.137c-0.277,3.165-3.165,5.2-7.061,5.2
	c-1.881,0-4.729-0.563-6.403-2.168l1.998-2.479c1.354,1.34,3.516,1.793,4.855,1.793c1.736,0,3.145-0.675,3.254-1.913
	c0.085-0.974-0.782-1.429-2.567-1.761l-0.97-0.188c-2.481-0.465-4.066-1.825-3.865-4.115c0.246-2.81,2.603-5.222,6.718-5.222
	c1.849,0,4.042,0.343,6.07,1.813L795.295,286.368z"/>
<path fill="#FFFFFF" d="M727.724,292.175l-1.701,5.665h-3.153l4.652-15.49h5.53c3.354,0,4.972,1.859,4.757,4.305
	c-0.289,3.319-2.838,5.52-6.92,5.52H727.724z M729.817,285.194l-1.249,4.16h2.722c2.013,0,3.173-0.851,3.305-2.367
	c0.099-1.128-0.618-1.793-2.155-1.793H729.817z"/>
<path fill="#FFFFFF" d="M754.773,289.31c-0.422,4.802-4.366,8.818-9.468,8.818c-4.315,0-7.271-2.876-6.89-7.247
	c0.42-4.791,4.367-8.807,9.466-8.807C752.198,282.075,755.154,284.951,754.773,289.31 M741.665,290.671
	c-0.238,2.732,1.466,4.491,4.11,4.491c3.098,0,5.482-2.61,5.749-5.642c0.237-2.722-1.477-4.493-4.099-4.493
	C744.306,285.028,741.93,287.65,741.665,290.671"/>
<path fill="#FFFFFF" d="M764.468,282.351c3.341,0,4.982,1.859,4.778,4.183c-0.194,2.212-1.779,4.912-6.158,5.132l3.718,6.174H763.2
	l-3.465-6.163h-0.818l-1.845,6.163h-3.154l4.654-15.49H764.468z M760.865,285.206l-1.139,3.784h3.265
	c2.267,0,2.94-1.118,3.029-2.136c0.089-1.006-0.675-1.647-2.179-1.647H760.865z"/>
<polygon fill="#FFFFFF" points="783.397,285.238 778.763,285.238 774.982,297.84 771.83,297.84 775.609,285.238 770.884,285.238 
	771.757,282.351 784.271,282.351 "/>
<path fill="#FFFFFF" d="M563.245,266.746c0,7.392-5.438,12.803-12.433,12.803c-4.488,0-7.813-2.033-9.795-5.121v4.725h-3.008
	v-38.011h3.008v17.896c1.981-3.062,5.307-5.121,9.795-5.121C557.807,253.917,563.245,259.355,563.245,266.746 M541.213,266.746
	c0,5.703,4.064,9.979,9.659,9.979c5.729,0,9.689-4.382,9.689-9.979c0-5.622-4.014-10.003-9.689-10.003
	C545.277,256.742,541.213,261.044,541.213,266.746"/>
<polygon fill="#FFFFFF" points="568.44,295.542 565.336,295.542 572.453,278.488 561.598,253.909 564.753,253.909 573.934,274.99 
	582.805,253.909 585.882,253.909 "/>
<path fill="#08FA85" d="M158.85,264.449c-4.537-0.61-9.045-1.551-13.4-2.797l-8.893-2.544l8.891-2.556
	c16.061-4.619,30.046-13.767,41.568-27.188c3.203-3.73,7.861-5.871,12.778-5.871c3.494,0,6.85,1.069,9.707,3.091l8.125,5.752
	l-1.99,2.216c-15.175,16.911-34.044,26.969-56.082,29.896l-0.353,0.046L158.85,264.449z"/>
<path fill="#37053B" d="M199.795,226.146c2.838,0,5.698,0.851,8.173,2.604l5.693,4.03c-14.558,16.22-32.973,26.185-54.459,29.039
	c-4.442-0.597-8.793-1.508-13.023-2.718c16.631-4.783,31.062-14.278,42.849-28.009C191.819,227.842,195.785,226.146,199.795,226.146
	 M199.795,220.84c-5.694,0-11.085,2.477-14.793,6.796c-11.178,13.022-24.734,21.893-40.29,26.366l-17.782,5.113l17.789,5.087
	c4.477,1.28,9.112,2.248,13.775,2.876l0.702,0.095l0.705-0.093c22.685-3.015,42.101-13.363,57.708-30.755l3.978-4.433l-4.86-3.442
	l-5.693-4.03C207.726,222.078,203.84,220.84,199.795,220.84"/>
<path fill="#08FA85" d="M199.734,118.239c-5.143,0-9.92-2.297-13.112-6.304l-0.634-0.788
	c-10.821-13.293-24.454-22.368-40.524-26.968l-8.873-2.541l8.867-2.561c4.294-1.238,8.761-2.175,13.276-2.785l0.351-0.047
	l0.35,0.047c22.712,2.989,42.298,13.885,56.641,31.508l1.972,2.422l-2.663,1.611l-7.277,4.173
	C205.561,117.467,202.664,118.239,199.734,118.239"/>
<path fill="#37053B" d="M159.089,78.923c22.402,2.947,41.053,13.501,54.929,30.552c0.014,0.02,0.03,0.039,0.045,0.057l-7.275,4.171
	c-2.213,1.27-4.647,1.882-7.055,1.882c-4.178,0-8.282-1.842-11.037-5.304c-0.215-0.271-0.432-0.538-0.649-0.807
	c-11.08-13.614-25.207-23.081-41.854-27.847C150.35,80.429,154.655,79.521,159.089,78.923 M159.08,73.569l-0.699,0.095
	c-4.646,0.627-9.241,1.592-13.658,2.867l-17.732,5.12l17.744,5.08c15.538,4.448,28.725,13.228,39.198,26.095
	c0.206,0.254,0.412,0.508,0.615,0.764c3.693,4.641,9.23,7.303,15.187,7.303c3.393,0,6.744-0.894,9.695-2.584l7.275-4.171l5.45-3.126
	l-3.993-4.85c-14.806-18.192-34.983-29.419-58.38-32.499L159.08,73.569z"/>
<path fill="#0AEFFD" d="M225.705,118.239c-5.143,0-9.921-2.297-13.113-6.304l-0.587-0.73
	c-13.709-16.845-31.614-26.803-53.262-29.653l-19.75-2.599l19.741-2.661c4.346-0.587,8.797-0.882,13.229-0.882
	c28.699,0,52.985,11.201,70.229,32.39l1.972,2.422l-10.085,5.784C231.532,117.467,228.635,118.239,225.705,118.239"/>
<path fill="#37053B" d="M171.963,78.063c28.347,0,51.644,11.103,68.171,31.412l-7.375,4.229c-2.212,1.27-4.646,1.882-7.055,1.882
	c-4.178,0-8.282-1.842-11.038-5.304c-0.199-0.251-0.401-0.501-0.604-0.75c-0.016-0.018-0.031-0.038-0.045-0.057
	c-13.876-17.05-32.527-27.604-54.929-30.552C163.271,78.359,167.567,78.063,171.963,78.063 M171.963,72.757
	c-4.549,0-9.12,0.306-13.584,0.907l-39.468,5.324l39.485,5.195c20.955,2.758,38.284,12.395,51.507,28.642l0.067,0.083
	c0.167,0.205,0.358,0.442,0.547,0.68c3.696,4.642,9.231,7.304,15.188,7.304c3.393,0,6.745-0.894,9.693-2.584l7.376-4.229
	l5.419-3.106l-3.943-4.845C226.485,84.296,201.489,72.757,171.963,72.757"/>
<path fill="#0AEFFD" d="M172.191,265.336c-4.485,0-8.974-0.299-13.344-0.887l-19.643-2.649l19.649-2.61
	c20.75-2.757,38.526-12.238,52.832-28.181c0.5-0.557,0.995-1.121,1.486-1.693c3.178-3.705,7.812-5.83,12.713-5.83
	c3.503,0,6.869,1.071,9.733,3.097l8.123,5.753l-1.987,2.216C223.682,254.692,199.627,265.336,172.191,265.336"/>
<path fill="#37053B" d="M225.885,226.139c2.849,0,5.72,0.856,8.199,2.61l5.693,4.032c-17.44,19.437-40.419,29.901-67.587,29.901
	c-4.393,0-8.731-0.289-12.988-0.863c21.486-2.854,39.902-12.817,54.459-29.039c0.513-0.571,1.021-1.15,1.525-1.739
	C217.953,227.814,221.897,226.139,225.885,226.139 M225.885,220.833c-5.678,0-11.045,2.463-14.728,6.756
	c-0.477,0.557-0.959,1.106-1.446,1.649c-13.872,15.458-31.1,24.651-51.208,27.322l-39.321,5.225l39.312,5.294
	c4.485,0.604,9.094,0.91,13.695,0.91c28.212,0,52.948-10.949,71.537-31.664l3.977-4.433l-4.86-3.442l-5.694-4.031
	C233.835,222.072,229.941,220.833,225.885,220.833"/>
<path fill="#FD2B5C" d="M172.874,338.092c-48.165,0-91.663-16.743-122.48-47.146C19.608,260.573,2.653,217.753,2.653,170.374
	c0-47.381,16.955-90.2,47.741-120.573c30.817-30.403,74.315-47.146,122.48-47.146c62.595,0,116.326,29.15,143.733,77.977
	l1.286,2.292l-57.696,33.084c-2.548,1.46-5.445,2.232-8.375,2.232c-5.144,0-9.923-2.298-13.112-6.305l-0.635-0.787
	c-16.202-19.907-39.063-30.43-66.113-30.43c-4.195,0-8.406,0.28-12.518,0.834c-4.258,0.574-8.468,1.458-12.515,2.626l-0.082,0.023
	c-36.887,10.712-59.767,43.719-59.767,86.173c0,43.248,22.366,75.463,59.827,86.177c4.109,1.175,8.363,2.063,12.649,2.639
	c4.135,0.559,8.385,0.841,12.634,0.841c26.257,0,48.332-9.764,65.612-29.022l2.072,1.662l-1.977-1.77
	c3.709-4.146,9.015-6.522,14.562-6.522c4.027,0,7.898,1.233,11.191,3.565l51.331,36.342l-1.44,2.148
	C282.575,312.644,232.617,338.092,172.874,338.092"/>
<path fill="#37053B" d="M172.874,5.306c60.706,0,114.364,28.422,141.418,76.623l-55.415,31.775c-2.214,1.27-4.647,1.882-7.057,1.882
	c-4.176,0-8.28-1.842-11.036-5.304c-0.216-0.271-0.433-0.539-0.65-0.807c-16.527-20.309-39.824-31.412-68.172-31.412
	c-4.396,0-8.691,0.295-12.875,0.86c-4.433,0.597-8.736,1.505-12.894,2.705c-0.017,0.005-0.034,0.009-0.05,0.013
	c-36.682,10.615-61.716,44.023-61.716,88.734c0,47.831,26.647,78.688,61.751,88.727c4.229,1.21,8.581,2.121,13.024,2.718
	c4.256,0.574,8.594,0.863,12.988,0.863c27.167,0,50.146-10.465,67.586-29.901c0.034-0.037,0.066-0.073,0.098-0.11
	c3.315-3.705,7.931-5.639,12.585-5.639c3.356,0,6.732,1.005,9.658,3.076l49.22,34.85c-29.104,43.426-77.531,70.482-138.465,70.482
	c-98.22,0-167.568-68.664-167.568-165.064C5.306,73.971,74.654,5.306,172.874,5.306 M172.874,0c-24.772,0-48.172,4.24-69.552,12.6
	C82.437,20.767,64.002,32.648,48.53,47.912c-15.465,15.257-27.502,33.433-35.777,54.021C4.291,122.988,0,146.015,0,170.375
	c0,24.357,4.291,47.384,12.752,68.438c8.275,20.588,20.312,38.764,35.777,54.021c15.473,15.264,33.907,27.145,54.792,35.311
	c21.38,8.361,44.781,12.6,69.552,12.6c30.622,0,58.756-6.581,83.624-19.559c24.028-12.54,43.961-30.463,59.25-53.276l2.878-4.295
	l-4.222-2.989l-49.219-34.849c-3.744-2.65-8.143-4.052-12.724-4.052c-6.298,0-12.328,2.7-16.539,7.408l-0.1,0.11
	c-16.75,18.666-38.16,28.133-63.631,28.133c-4.131,0-8.262-0.273-12.281-0.815c-4.158-0.56-8.29-1.421-12.273-2.56
	c-16.884-4.829-31.141-14.596-41.231-28.243C95.5,211.001,89.734,191.85,89.734,170.375c0-20.53,5.576-39.229,16.122-54.081
	c10.22-14.386,24.66-24.605,41.764-29.556c3.965-1.144,8.047-2,12.178-2.557c3.995-0.539,8.089-0.812,12.165-0.812
	c26.225,0,48.375,10.185,64.057,29.456c0.206,0.251,0.411,0.505,0.614,0.762c3.696,4.643,9.231,7.305,15.188,7.305
	c3.394,0,6.747-0.894,9.695-2.583l55.417-31.777l4.562-2.616l-2.574-4.584c-13.706-24.418-34.523-44.634-60.203-58.46
	C233.362,7.217,203.679,0,172.874,0"/>
</svg>
