<svg xmlns="http://www.w3.org/2000/svg" viewBox="0 0 2452 207.5" preserveAspectRatio="xMinYMin"><defs><style>  .cls-1{fill:#fff;}.cls-2{fill:#00ff87;}.cls-3{fill:#05f1ff;}.cls-4{fill:#ff015b;}</style></defs><title>  defter_logo_inline_white</title><g data-name="Layer 2"><g data-name="Layer 1"><path data-name="<Path>" class="cls-1" d="M276.5 52.4c29.8 0 42.2 17.9 42.2 41 0 37-22.7 61.1-61.1 61.1H19.7L0 205.4H251.2c82.1 0 125.9-51.8 125.9-120.1 0-43.7-35.1-83.7-94.2-83.7H269.8L249.1 52.4"/><polygon data-name="<Path>" class="cls-2" points="148.4 146.6 207 1.6 259.5 1.6 200.7 146.6 148.4 146.6"/><polygon data-name="<Path>" class="cls-3" points="86.1 146.6 131.8 31.3 184.4 31.3 138.4 146.6 86.1 146.6"/><polygon data-name="<Path>" class="cls-4" points="23.4 146.6 57.3 60.9 109.9 60.9 75.8 146.6 23.4 146.6"/><path data-name="<Compound Path>" class="cls-1" d="M541.5 127.2H448.2L442 156.4h99.7l-10.5 49.1H375.1L418.4 2H574.4L563.9 51.2H464.4L458.7 78H552Z"/><path data-name="<Compound Path>" class="cls-1" d="M715.2 131.5H622.8l-15.7 74H550.7L594 2H747.6L737.1 51.2H639.9L633.2 82.4h92.4Z"/><path data-name="<Compound Path>" class="cls-1" d="M926.4 52.9H869.9L837.5 205.5H781.1L813.5 52.9H757L767.8 2H937.3Z"/><path data-name="<Compound Path>" class="cls-1" d="M1080 127.2H986.8l-6.2 29.2h99.7l-10.5 49.1H913.7L957 2h155.9l-10.5 49.1h-99.5L997.2 78h93.3Z"/><path data-name="<Compound Path>" class="cls-1" d="M1216.5 2c44.3 0 69.2 28.3 69.2 60.2 0 30.7-15.8 61.2-64.4 69.2l48.2 74.1H1206.5l-42.9-72.2H1161l-15.4 72.2h-56.4L1132.5 2Zm-41.2 49.6-7.7 36.2H1199c19.6 0 27.8-9 27.8-20.3 0-9.7-8.4-15.8-21.5-15.8Z"/><g data-name="<Group>"><path data-name="<Compound Path>" class="cls-1" d="M1491.4 55.5c-18.8-14-41.7-18.4-58.6-18.4-26.3 0-38 12.2-39.1 24.9-1.2 13.6 11.9 19.2 29.3 22.6l11.8 2.3c33.2 6.3 57.1 22 54.4 53.5-3.6 40.9-40.9 67.2-91.3 67.2-24.3 0-61.1-7.3-82.8-28l25.8-32c17.5 17.3 45.5 23.2 62.8 23.2 22.5 0 40.7-8.7 42.1-24.7 1.1-12.6-10.1-18.4-33.2-22.7l-12.5-2.4c-32.1-6-52.6-23.6-50-53.2 3.2-36.3 33.7-67.5 86.9-67.5 23.9 0 52.2 4.4 78.5 23.5Z"/><path data-name="<Compound Path>" class="cls-1" d="M2427.9 55.5c-18.8-14-41.7-18.4-58.6-18.4-26.3 0-38 12.2-39.1 24.9-1.2 13.6 11.9 19.2 29.3 22.6l11.8 2.3c33.2 6.3 57.1 22 54.4 53.5-3.6 40.9-40.9 67.2-91.3 67.2-24.3 0-61.1-7.3-82.8-28l25.8-32c17.5 17.3 45.5 23.2 62.8 23.2 22.5 0 40.7-8.7 42.1-24.7 1.1-12.6-10.1-18.4-33.2-22.7l-12.5-2.4c-32.1-6-52.6-23.6-50-53.2 3.2-36.3 33.7-67.5 86.9-67.5 23.9 0 52.2 4.4 78.5 23.5Z"/><path data-name="<Compound Path>" class="cls-1" d="M1554.4 130.6l-22 73.2h-40.8L1551.8 3.6h71.5c43.3 0 64.3 24 61.5 55.6-3.7 42.9-36.7 71.4-89.5 71.4Zm27.1-90.2-16.1 53.8h35.2c26 0 41-11 42.7-30.6 1.3-14.6-8-23.2-27.9-23.2Z"/><path data-name="<Compound Path>" class="cls-1" d="M1904.1 93.5c-5.4 62.1-56.4 114-122.4 114-55.8 0-94-37.2-89.1-93.7C1698 51.9 1749.1 0 1815 0 1870.8 0 1909 37.2 1904.1 93.5Zm-169.4 17.6c-3.1 35.3 19 58.1 53.1 58.1 40 0 70.9-33.7 74.3-72.9 3.1-35.2-19.1-58.1-53-58.1C1768.8 38.2 1738 72.1 1734.6 111.1Z"/><path data-name="<Compound Path>" class="cls-1" d="M2029.4 3.6c43.2 0 64.4 24 61.8 54.1-2.5 28.6-23 63.5-79.6 66.4l48.1 79.8H2013l-44.8-79.7h-10.6l-23.8 79.7H1893L1953.2 3.6Zm-46.6 36.9L1968.1 89.4h42.2c29.3 0 38-14.4 39.2-27.6s-8.7-21.3-28.2-21.3Z"/><path data-name="<Compound Path>" class="cls-1" d="M2274.1 40.9h-59.9l-48.9 162.9h-40.8l48.9-162.9h-61.1l11.3-37.3h161.8Z"/></g></g></g></svg>
